<?xml version="1.0" encoding="utf-8"?>
<!-- Generator: Adobe Illustrator 19.1.0, SVG Export Plug-In . SVG Version: 6.00 Build 0)  -->
<svg version="1.1" id="Calque_1" xmlns="http://www.w3.org/2000/svg" xmlns:xlink="http://www.w3.org/1999/xlink" x="0px" y="0px"
	 viewBox="0 0 21.7 20.3" style="enable-background:new 0 0 21.7 20.3;" xml:space="preserve">
<style type="text/css">
	.st0{fill:#FAB57A;}
	.st1{fill:#EA5455;}
	.st2{fill:#4D606E;}
</style>
<path class="st0" d="M16.9,44.9c-0.2,0-0.4-0.1-0.6-0.2l-5.6-4.2l-5.6,4c-0.3,0.2-0.8,0.2-1.1,0c-0.3-0.2-0.5-0.7-0.3-1.1l2.1-6.2
	l-5.5-3.7c-0.3-0.2-0.5-0.6-0.4-1C0.1,32.2,0.5,32,0.9,32h6.9l2.1-6.6c0.1-0.4,0.5-0.7,0.9-0.7l0,0c0.4,0,0.8,0.3,0.9,0.7l2.1,6.6
	h6.9c0.4,0,0.8,0.2,0.9,0.6s0,0.8-0.4,1l-5.5,3.7l2.1,6.4c0.1,0.4,0,0.8-0.3,1.1C17.3,44.8,17.1,44.9,16.9,44.9z M10.8,38.4
	c0.2,0,0.4,0.1,0.6,0.2l3.8,2.8l-1.4-4.2c-0.1-0.4,0-0.8,0.4-1l3.5-2.3h-4.5c-0.4,0-0.8-0.4-0.9-0.7l-1.5-4.6l-1.5,4.6
	C9.2,33.6,8.9,34,8.5,34H4l3.6,2.3c0.4,0.2,0.5,0.6,0.4,1l-1.4,4.1l3.8-2.7C10.4,38.5,10.6,38.4,10.8,38.4z"/>
<path class="st1" d="M10.7-3.4L2-12c-2.6-2.6-2.6-6.9,0.1-9.5c1.3-1.3,3-2,4.8-2c1.5,0,2.9,0.4,4.1,1.3c1.2-0.9,2.6-1.4,4-1.4
	c0,0,0,0,0,0c1.8,0,3.5,0.7,4.7,1.9c2.6,2.6,2.6,6.8,0,9.4L10.7-3.4z M6.9-21.6C6.9-21.6,6.8-21.6,6.9-21.6c-1.3,0-2.5,0.5-3.4,1.4
	c-1.9,1.9-1.9,4.9-0.1,6.7l7.3,7.3l7.5-7.5c1.9-1.8,1.9-4.8,0-6.6c-0.9-0.9-2.1-1.4-3.3-1.4c0,0,0,0,0,0c-1.3,0-2.4,0.5-3.3,1.4
	l-0.7,0.7l-0.7-0.7C9.3-21.1,8.1-21.6,6.9-21.6z"/>
<path class="st2" d="M10.8,20.4c-0.1,0-0.2,0-0.3,0l-0.1,0c0,0-0.8-0.2-1.2-0.3c-0.7-0.1-1.4-0.7-1.4-1.9c0-0.2,0-0.6,1.4-4.1H4.5
	c-1.6,0-2.9-1.3-2.9-2.9V6.5c0-0.6,0.3-1.3,0.6-1.7l2.6-3.4C5.1,1,5.9-0.2,7.4-0.2h9.5c0.9,0,1.7,0.8,1.7,1.7v10.6
	c0,0.8-0.3,1.5-0.8,2l-5.7,5.8C11.7,20.3,11.2,20.4,10.8,20.4z M10.7,18.4C10.7,18.4,10.7,18.4,10.7,18.4l5.7-5.7
	c0.2-0.2,0.3-0.4,0.3-0.6V1.8H7.4c-0.2,0-0.5,0.1-0.9,0.7L3.8,6C3.7,6.1,3.6,6.4,3.6,6.5v4.7c0,0.5,0.4,0.9,0.9,0.9h5.1
	c0.5,0,0.9,0.2,1.3,0.6c0.3,0.4,0.4,0.9,0.3,1.4l-0.1,0.2c-0.6,1.6-1.4,3.4-1.5,4C10.1,18.3,10.5,18.4,10.7,18.4z"/>
</svg>
