<?xml version="1.0" encoding="utf-8"?>
<!-- Generator: Adobe Illustrator 19.1.0, SVG Export Plug-In . SVG Version: 6.00 Build 0)  -->
<svg version="1.1" id="Calque_1" xmlns="http://www.w3.org/2000/svg" xmlns:xlink="http://www.w3.org/1999/xlink" x="0px" y="0px"
	 viewBox="0 0 21.7 20.3" style="enable-background:new 0 0 21.7 20.3;" xml:space="preserve">
<style type="text/css">
	.st0{fill:#FAB57A;}
	.st1{fill:#EA5455;}
	.st2{fill:#4D606E;}
</style>
<path class="st0" d="M16.9,20.2c-0.2,0-0.4-0.1-0.6-0.2l-5.6-4.2l-5.6,4c-0.3,0.2-0.8,0.2-1.1,0c-0.3-0.2-0.5-0.7-0.3-1.1l2.1-6.2
	L0.4,8.9C0.1,8.7-0.1,8.3,0,7.9c0.1-0.4,0.5-0.6,0.9-0.6h6.9l2.1-6.6C10.1,0.2,10.4,0,10.8,0l0,0c0.4,0,0.8,0.3,0.9,0.7l2.1,6.6h6.9
	c0.4,0,0.8,0.2,0.9,0.6s0,0.8-0.4,1l-5.5,3.7l2.1,6.4c0.1,0.4,0,0.8-0.3,1.1C17.3,20.1,17.1,20.2,16.9,20.2z M10.8,13.7
	c0.2,0,0.4,0.1,0.6,0.2l3.8,2.8l-1.4-4.2c-0.1-0.4,0-0.8,0.4-1l3.5-2.3h-4.5c-0.4,0-0.8-0.4-0.9-0.7L10.8,4L9.4,8.6
	C9.2,8.9,8.9,9.3,8.5,9.3H4l3.6,2.3c0.4,0.2,0.5,0.6,0.4,1l-1.4,4.1l3.8-2.7C10.4,13.8,10.6,13.7,10.8,13.7z"/>
<path class="st1" d="M10.7-28L2-36.7c-2.6-2.6-2.6-6.9,0.1-9.5c1.3-1.3,3-2,4.8-2c1.5,0,2.9,0.4,4.1,1.3c1.2-0.9,2.6-1.4,4-1.4
	c0,0,0,0,0,0c1.8,0,3.5,0.7,4.7,1.9c2.6,2.6,2.6,6.8,0,9.4L10.7-28z M6.9-46.3C6.9-46.3,6.8-46.3,6.9-46.3c-1.3,0-2.5,0.5-3.4,1.4
	C1.5-43,1.5-40,3.4-38.1l7.3,7.3l7.5-7.5c1.9-1.8,1.9-4.8,0-6.6c-0.9-0.9-2.1-1.4-3.3-1.4c0,0,0,0,0,0c-1.3,0-2.4,0.5-3.3,1.4
	l-0.7,0.7l-0.7-0.7C9.3-45.8,8.1-46.3,6.9-46.3z"/>
<path class="st2" d="M10.8-4.3c-0.1,0-0.2,0-0.3,0l-0.1,0c0,0-0.8-0.2-1.2-0.3C8.4-4.7,7.7-5.3,7.7-6.5c0-0.2,0-0.6,1.4-4.1H4.5
	c-1.6,0-2.9-1.3-2.9-2.9v-4.7c0-0.6,0.3-1.3,0.6-1.7l2.6-3.4c0.2-0.4,1.1-1.6,2.5-1.6h9.5c0.9,0,1.7,0.8,1.7,1.7v10.6
	c0,0.8-0.3,1.5-0.8,2l-5.7,5.8C11.7-4.4,11.2-4.3,10.8-4.3z M10.7-6.3C10.7-6.3,10.7-6.3,10.7-6.3l5.7-5.7c0.2-0.2,0.3-0.4,0.3-0.6
	v-10.3H7.4c-0.2,0-0.5,0.1-0.9,0.7l-2.6,3.5c-0.1,0.1-0.2,0.3-0.2,0.4v4.7c0,0.5,0.4,0.9,0.9,0.9h5.1c0.5,0,0.9,0.2,1.3,0.6
	c0.3,0.4,0.4,0.9,0.3,1.4l-0.1,0.2c-0.6,1.6-1.4,3.4-1.5,4C10.1-6.4,10.5-6.3,10.7-6.3z"/>
</svg>
