<?xml version="1.0" encoding="utf-8"?>
<!-- Generator: Adobe Illustrator 19.1.0, SVG Export Plug-In . SVG Version: 6.00 Build 0)  -->
<svg version="1.1" id="Calque_1" xmlns="http://www.w3.org/2000/svg" xmlns:xlink="http://www.w3.org/1999/xlink" x="0px" y="0px"
	 viewBox="0 0 21.7 20.3" style="enable-background:new 0 0 21.7 20.3;" xml:space="preserve">
<style type="text/css">
	.st0{fill:#FAB57A;}
	.st1{fill:#EA5455;}
	.st2{fill:#4D606E;}
</style>
<path class="st0" d="M16.9,68.5c-0.2,0-0.4-0.1-0.6-0.2l-5.6-4.2l-5.6,4c-0.3,0.2-0.8,0.2-1.1,0c-0.3-0.2-0.5-0.7-0.3-1.1l2.1-6.2
	l-5.5-3.7c-0.3-0.2-0.5-0.6-0.4-1c0.1-0.4,0.5-0.6,0.9-0.6h6.9l2.1-6.6c0.1-0.4,0.5-0.7,0.9-0.7l0,0c0.4,0,0.8,0.3,0.9,0.7l2.1,6.6
	h6.9c0.4,0,0.8,0.2,0.9,0.6s0,0.8-0.4,1l-5.5,3.7l2.1,6.4c0.1,0.4,0,0.8-0.3,1.1C17.3,68.4,17.1,68.5,16.9,68.5z M10.8,62
	c0.2,0,0.4,0.1,0.6,0.2l3.8,2.8l-1.4-4.2c-0.1-0.4,0-0.8,0.4-1l3.5-2.3h-4.5c-0.4,0-0.8-0.4-0.9-0.7l-1.5-4.6l-1.5,4.6
	c-0.1,0.4-0.5,0.7-0.9,0.7H4l3.6,2.3c0.4,0.2,0.5,0.6,0.4,1L6.5,65l3.8-2.7C10.4,62.1,10.6,62,10.8,62z"/>
<path class="st1" d="M10.7,20.3L2,11.6C-0.7,9-0.6,4.7,2,2c1.3-1.3,3-2,4.8-2c1.5,0,2.9,0.4,4.1,1.3C12.1,0.5,13.5,0,15,0
	c0,0,0,0,0,0c1.8,0,3.5,0.7,4.7,1.9c2.6,2.6,2.6,6.8,0,9.4L10.7,20.3z M6.9,2C6.9,2,6.8,2,6.9,2C5.5,2,4.3,2.5,3.4,3.4
	c-1.9,1.9-1.9,4.9-0.1,6.7l7.3,7.3l7.5-7.5c1.9-1.8,1.9-4.8,0-6.6C17.4,2.5,16.2,2,15,2c0,0,0,0,0,0c-1.3,0-2.4,0.5-3.3,1.4
	l-0.7,0.7l-0.7-0.7C9.3,2.5,8.1,2,6.9,2z"/>
<path class="st2" d="M10.8,44c-0.1,0-0.2,0-0.3,0l-0.1,0c0,0-0.8-0.2-1.2-0.3c-0.7-0.1-1.4-0.7-1.4-1.9c0-0.2,0-0.6,1.4-4.1H4.5
	c-1.6,0-2.9-1.3-2.9-2.9v-4.7c0-0.6,0.3-1.3,0.6-1.7L4.8,25c0.2-0.4,1.1-1.6,2.5-1.6h9.5c0.9,0,1.7,0.8,1.7,1.7v10.6
	c0,0.8-0.3,1.5-0.8,2l-5.7,5.8C11.7,44,11.2,44,10.8,44z M10.7,42C10.7,42,10.7,42,10.7,42l5.7-5.7c0.2-0.2,0.3-0.4,0.3-0.6V25.4
	H7.4c-0.2,0-0.5,0.1-0.9,0.7l-2.6,3.5c-0.1,0.1-0.2,0.3-0.2,0.4v4.7c0,0.5,0.4,0.9,0.9,0.9h5.1c0.5,0,0.9,0.2,1.3,0.6
	c0.3,0.4,0.4,0.9,0.3,1.4l-0.1,0.2c-0.6,1.6-1.4,3.4-1.5,4C10.1,41.9,10.5,42,10.7,42z"/>
</svg>
