<?xml version="1.0" encoding="utf-8"?>
<!-- Generator: Adobe Illustrator 19.1.0, SVG Export Plug-In . SVG Version: 6.00 Build 0)  -->
<svg version="1.1" id="Layer_1" xmlns="http://www.w3.org/2000/svg" xmlns:xlink="http://www.w3.org/1999/xlink" x="0px" y="0px"
	 viewBox="0 0 640 480" style="enable-background:new 0 0 640 480;" xml:space="preserve">
<style type="text/css">
	.st0{fill:#EA5455;}
</style>
<path d="M89.9,161.8c1.2,1.1,1.7,2.5,1.7,4.1c0,1.7-0.6,3.1-1.7,4.2c-1.2,1.1-2.5,1.7-4.1,1.7c-1.6,0-3-0.6-4.2-1.7
	c-1.2-1.1-1.7-2.5-1.7-4.2c0-1.6,0.6-2.9,1.7-4.1c1.2-1.1,2.6-1.7,4.2-1.7C87.4,160.1,88.7,160.7,89.9,161.8z M88.7,182.9v64.3h-5.9
	v-64.3H88.7z"/>
<path class="st0" d="M110.7,197.3v49.9h-5.9v-64.3h5.9v4.1c5.3-5.3,11.6-8,18.7-8c7.6,0,13.8,2.4,18.6,7.1c4.8,4.8,7.2,10.8,7.3,18
	v43h-5.9v-42.4c0-5.5-2-10.1-5.9-14c-4-3.9-8.6-5.8-14.1-5.8c-5.4,0-10.1,1.9-14,5.7C113.3,192.8,111.7,195,110.7,197.3z"/>
<path d="M172.9,209.8c-0.1,1-0.2,2.1-0.2,3.3c0,8.2,2.9,15.2,8.7,21c5.8,5.8,12.8,8.7,21,8.7c8.2,0,15.2-2.9,21-8.7
	c1-1,1.9-2,2.8-3.1l6.3,2.2c-0.7,1.2-2.3,3-4.7,5.3c-7,7.1-15.5,10.6-25.5,10.6c-9.9,0-18.3-3.5-25.4-10.6c-7-7-10.6-15.5-10.6-25.4
	c0-10,3.5-18.5,10.6-25.5c7-7,15.5-10.5,25.4-10.5c10,0,18.5,3.5,25.5,10.5c6.2,6.2,9.3,13.6,9.3,22.1H172.9z M174,203.8h56.4
	c-1.4-4.5-3.7-8.4-7-11.7c-5.8-5.8-12.8-8.7-21-8.7c-8.2,0-15.2,2.9-21,8.7C177.9,195.6,175.4,199.5,174,203.8z"/>
<path d="M253.9,188.8v58.4h-5.9v-58.4h-6.5v-5.9h6.5v-17.4c0.3-4.8,2.1-9,5.6-12.5c3.6-3.3,7.7-5,12.4-5c2.5,0,5.1,0.5,7.8,1.4
	l-1.9,5.3c-1.8-0.8-3.6-1.2-5.3-1.2c-3.1,0-6,1.2-8.7,3.7c-2.4,2.4-3.7,5.3-3.9,8.7v17H267v5.9H253.9z"/>
<path d="M282.2,188.8v58.4h-5.9v-58.4h-6.5v-5.9h6.5v-17.4c0.3-4.8,2.1-9,5.6-12.5c3.6-3.3,7.7-5,12.4-5c2.5,0,5.1,0.5,7.8,1.4
	l-1.9,5.3c-1.8-0.8-3.6-1.2-5.3-1.2c-3.1,0-6,1.2-8.7,3.7c-2.4,2.4-3.7,5.3-3.9,8.7v17h13.1v5.9H282.2z"/>
<path d="M373,247.2h-5.9v-13.1c-1.1,1.5-2.4,3-3.7,4.4c-7,7.1-15.5,10.6-25.5,10.6c-9.9,0-18.3-3.5-25.4-10.6
	c-7-7-10.6-15.5-10.6-25.4c0-10,3.5-18.5,10.6-25.5c7-7,15.5-10.5,25.4-10.5c10,0,18.5,3.5,25.5,10.5c1.3,1.4,2.6,2.8,3.7,4.4v-9.1
	h5.9V247.2z M367.1,218.9v-11.6c-1.1-5.8-3.8-10.8-8.1-15.2c-5.8-5.8-12.8-8.7-21-8.7c-8.2,0-15.2,2.9-21,8.7
	c-5.8,5.8-8.7,12.8-8.7,21c0,8.2,2.9,15.2,8.7,21c5.8,5.8,12.8,8.7,21,8.7c8.2,0,15.2-2.9,21-8.7C363.3,229.7,366,224.6,367.1,218.9
	z"/>
<path d="M387,142.4h5.9v49.5c1.1-1.5,2.3-2.9,3.7-4.3c7-7,15.5-10.5,25.4-10.5c9.9,0,18.4,3.5,25.4,10.5c7,7,10.5,15.5,10.5,25.5
	c0,9.9-3.5,18.3-10.5,25.4c-7,7-15.5,10.6-25.4,10.6c-9.9,0-18.4-3.5-25.4-10.6c-1.4-1.4-2.6-2.8-3.7-4.3v13H387V142.4z M392.9,207
	v12.3c1.1,5.6,3.8,10.5,8.1,14.7c5.8,5.8,12.8,8.7,21,8.7c8.2,0,15.2-2.9,21-8.7c5.8-5.8,8.7-12.8,8.7-21c0-8.2-2.9-15.2-8.7-21
	c-5.8-5.8-12.8-8.7-21-8.7c-8.2,0-15.2,2.9-21,8.7C396.7,196.4,394,201.3,392.9,207z"/>
<path d="M477.5,142.4v104.7h-5.9V142.4H477.5z"/>
<path d="M495.9,209.8c-0.1,1-0.2,2.1-0.2,3.3c0,8.2,2.9,15.2,8.7,21c5.8,5.8,12.8,8.7,21,8.7c8.2,0,15.2-2.9,21-8.7
	c1-1,1.9-2,2.8-3.1l6.3,2.2c-0.7,1.2-2.3,3-4.7,5.3c-7,7.1-15.5,10.6-25.5,10.6c-9.9,0-18.3-3.5-25.4-10.6c-7-7-10.6-15.5-10.6-25.4
	c0-10,3.5-18.5,10.6-25.5c7-7,15.5-10.5,25.4-10.5c10,0,18.5,3.5,25.5,10.5c6.2,6.2,9.3,13.6,9.3,22.1H495.9z M497,203.8h56.4
	c-1.4-4.5-3.7-8.4-7-11.7c-5.8-5.8-12.8-8.7-21-8.7c-8.2,0-15.2,2.9-21,8.7C500.9,195.6,498.5,199.5,497,203.8z"/>
<path class="st0" d="M104.8,231h5.9v49.5c1.1-1.5,2.3-2.9,3.7-4.3c7-7,15.5-10.5,25.4-10.5c9.9,0,18.4,3.5,25.4,10.5
	c7,7,10.5,15.5,10.5,25.5c0,9.9-3.5,18.3-10.5,25.4c-7,7-15.5,10.6-25.4,10.6c-9.9,0-18.4-3.5-25.4-10.6c-1.4-1.4-2.6-2.8-3.7-4.3
	v13h-5.9V231z M110.7,295.5v12.3c1.1,5.6,3.8,10.5,8.1,14.7c5.8,5.8,12.8,8.7,21,8.7c8.2,0,15.2-2.9,21-8.7c5.8-5.8,8.7-12.8,8.7-21
	c0-8.2-2.9-15.2-8.7-21c-5.8-5.8-12.8-8.7-21-8.7c-8.2,0-15.2,2.9-21,8.7C114.5,284.9,111.8,289.9,110.7,295.5z"/>
<path d="M209.4,276.6c-4.2,0.6-8.3,3.3-12.4,8c-4.1,4.7-6.1,9.4-6.1,14.2v36.9h-5.9v-64.3h5.9v13.9c2.5-6.5,7.5-11.3,15.2-14.4
	L209.4,276.6z"/>
<path d="M253.3,336.6c-8.1,0-14.4-2.4-19.2-7.1c-4.7-4.7-7.2-10.7-7.3-18v-40.1h5.9V311c0,5.4,2,10.1,5.9,13.9
	c3.9,3.9,8.8,5.9,14.6,5.9c5.4,0,10.1-1.9,14-5.8c3.9-3.9,5.9-8.5,5.9-14v-39.6h5.9v40.1c-0.1,7.3-2.6,13.3-7.3,18
	C267,334.2,260.9,336.6,253.3,336.6z"/>
<path d="M308.3,301.2c-5-2.7-8.4-5-10.4-7c-3-3-4.5-6.6-4.5-10.9c0-4.2,1.5-7.9,4.5-10.9c3-3,6.6-4.6,10.9-4.6
	c4.2,0,7.8,1.4,10.6,4.2c2.7,2.7,4.1,5.8,4.1,9.3v0.3l-5.1,2.1c-0.4-3.3-1.5-5.8-3.1-7.5c-1.6-1.7-3.8-2.5-6.4-2.5
	c-2.6,0-4.9,0.9-6.7,2.8c-1.9,1.9-2.8,4.1-2.8,6.7c0,2.6,0.9,4.9,2.8,6.7c1.1,1.1,3.4,2.8,6.9,5c5.6,3,9.6,5.7,11.9,8.1
	c3.7,3.8,5.6,8.2,5.6,13.4c0,5.3-1.9,9.9-5.6,13.6s-8.2,5.6-13.5,5.6c-5.3,0-9.8-1.9-13.5-5.6c-3.7-3.7-5.6-7.8-5.6-12.3l5.9-1.5
	c0,3.8,1.3,7,3.9,9.6c2.6,2.6,5.7,3.9,9.3,3.9c3.6,0,6.7-1.3,9.3-3.9c2.6-2.6,3.9-5.7,3.9-9.4c0-3.6-1.3-6.7-3.9-9.3
	C315.4,306,312.5,303.9,308.3,301.2z"/>
<path d="M359.6,301.2c-5-2.7-8.4-5-10.4-7c-3-3-4.5-6.6-4.5-10.9c0-4.2,1.5-7.9,4.5-10.9c3-3,6.6-4.6,10.9-4.6
	c4.2,0,7.8,1.4,10.6,4.2c2.7,2.7,4.1,5.8,4.1,9.3v0.3l-5.1,2.1c-0.4-3.3-1.5-5.8-3.1-7.5c-1.6-1.7-3.8-2.5-6.4-2.5
	c-2.6,0-4.9,0.9-6.7,2.8c-1.9,1.9-2.8,4.1-2.8,6.7c0,2.6,0.9,4.9,2.8,6.7c1.1,1.1,3.4,2.8,6.9,5c5.6,3,9.6,5.7,11.9,8.1
	c3.7,3.8,5.6,8.2,5.6,13.4c0,5.3-1.9,9.9-5.6,13.6c-3.7,3.7-8.2,5.6-13.5,5.6c-5.3,0-9.8-1.9-13.5-5.6c-3.7-3.7-5.6-7.8-5.6-12.3
	l5.9-1.5c0,3.8,1.3,7,3.9,9.6c2.6,2.6,5.7,3.9,9.3,3.9c3.6,0,6.7-1.3,9.3-3.9c2.6-2.6,3.9-5.7,3.9-9.4c0-3.6-1.3-6.7-3.9-9.3
	C366.7,306,363.9,303.9,359.6,301.2z"/>
<path d="M389.9,298.3c-0.1,1-0.2,2.1-0.2,3.3c0,8.2,2.9,15.2,8.7,21c5.8,5.8,12.8,8.7,21,8.7c8.2,0,15.2-2.9,21-8.7
	c1-1,1.9-2,2.8-3.1l6.3,2.2c-0.7,1.2-2.3,3-4.7,5.3c-7,7.1-15.5,10.6-25.5,10.6c-9.9,0-18.3-3.5-25.4-10.6c-7-7-10.6-15.5-10.6-25.4
	c0-10,3.5-18.5,10.6-25.5c7-7,15.5-10.5,25.4-10.5c10,0,18.5,3.5,25.5,10.5c6.2,6.2,9.3,13.6,9.3,22.1H389.9z M391,292.3h56.4
	c-1.4-4.5-3.7-8.4-7-11.7c-5.8-5.8-12.8-8.7-21-8.7c-8.2,0-15.2,2.9-21,8.7C394.9,284.1,392.5,288,391,292.3z"/>
<path d="M477.5,231v104.7h-5.9V231H477.5z"/>
<path d="M509.6,301.2c-5-2.7-8.4-5-10.4-7c-3-3-4.5-6.6-4.5-10.9c0-4.2,1.5-7.9,4.5-10.9c3-3,6.6-4.6,10.9-4.6
	c4.2,0,7.8,1.4,10.6,4.2c2.7,2.7,4.1,5.8,4.1,9.3v0.3l-5.1,2.1c-0.4-3.3-1.5-5.8-3.1-7.5c-1.6-1.7-3.8-2.5-6.4-2.5
	c-2.6,0-4.9,0.9-6.7,2.8c-1.9,1.9-2.8,4.1-2.8,6.7c0,2.6,0.9,4.9,2.8,6.7c1.1,1.1,3.4,2.8,6.9,5c5.6,3,9.6,5.7,11.9,8.1
	c3.7,3.8,5.6,8.2,5.6,13.4c0,5.3-1.9,9.9-5.6,13.6s-8.2,5.6-13.5,5.6c-5.3,0-9.8-1.9-13.5-5.6c-3.7-3.7-5.6-7.8-5.6-12.3l5.9-1.5
	c0,3.8,1.3,7,3.9,9.6c2.6,2.6,5.7,3.9,9.3,3.9c3.6,0,6.7-1.3,9.3-3.9c2.6-2.6,3.9-5.7,3.9-9.4c0-3.6-1.3-6.7-3.9-9.3
	C516.7,306,513.9,303.9,509.6,301.2z"/>
</svg>
