<svg id="Calque_1" data-name="Calque 1" xmlns="http://www.w3.org/2000/svg" viewBox="0 0 1269 834.19"><defs><style>.cls-1{fill:none;}.cls-2{fill:#333;}</style></defs><title>Brussels Skyline</title><polygon class="cls-1" points="401.21 83.92 403 84.82 403 80.93 401.55 80.24 401.21 83.92"/><path class="cls-1" d="M399.79-401.33a14.8,14.8,0,0,1,3.21-1.21v-2l-2.76-1.27Z" transform="translate(0 496.19)"/><polygon class="cls-1" points="400.55 88.99 403 90.18 403 86.29 400.89 85.31 400.55 88.99"/><path class="cls-1" d="M391.1-434.86l-17,9h0a11.77,11.77,0,0,1,.29,2.58,11.65,11.65,0,0,1-1.21,5.15l23.78,19c0.19-.19.39-0.37,0.6-0.55l2.79-21.41A15.17,15.17,0,0,1,391.1-434.86Z" transform="translate(0 496.19)"/><polygon class="cls-1" points="452 88.94 452.6 93.03 453.6 92.6 452.51 88.83 452 88.94"/><path class="cls-1" d="M394.68-396.22l-23.63-18.85a11.71,11.71,0,0,1-8.13,3.57l-6.39,40.74H387v-5l10.21-4A13.1,13.1,0,0,1,394.68-396.22Z" transform="translate(0 496.19)"/><polygon class="cls-1" points="453.51 99.19 455.26 98.43 453.97 93.91 452.81 94.41 453.51 99.19"/><path class="cls-1" d="M440.89-431.85a11.63,11.63,0,0,1,7.89-3.08h1l2.89-21.83a13.94,13.94,0,0,1-9.1-4.28l-22.92,16.19Z" transform="translate(0 496.19)"/><polygon class="cls-1" points="454.36 105.23 456.86 104.14 455.59 99.71 453.67 100.55 454.36 105.23"/><path class="cls-1" d="M402.12-420.34l-0.25,3,1.12,0.58v-3.36A4.28,4.28,0,0,0,402.12-420.34Z" transform="translate(0 496.19)"/><path class="cls-1" d="M395.26-496.19L369-479.76a14,14,0,0,1,2.93,11.86l23,12.33a11.71,11.71,0,0,1,9.38-8.06l-0.48-27.12A13.23,13.23,0,0,1,395.26-496.19Z" transform="translate(0 496.19)"/><path class="cls-1" d="M392.08-440.38a15.24,15.24,0,0,1,1.14-2.38l-15.46,9.9Z" transform="translate(0 496.19)"/><polygon class="cls-1" points="359.12 89.04 358.61 88.93 357.53 92.68 358.53 93.11 359.12 89.04"/><path class="cls-1" d="M395.21-447.92a11.67,11.67,0,0,1-.79-3.84l-23.66-12.7v0.08l23.83,16.86Z" transform="translate(0 496.19)"/><path class="cls-1" d="M362.69-434.92a11.65,11.65,0,0,1,7.82,3l20.74-13.34-22.64-16v-0.06a14,14,0,0,1-8.93,4.56l2.88,21.84h0.13Z" transform="translate(0 496.19)"/><polygon class="cls-1" points="358.32 94.43 357.17 93.93 355.87 98.45 357.62 99.21 358.32 94.43"/><polygon class="cls-1" points="352.56 109.88 355.81 111.3 356.5 106.59 353.83 105.43 352.56 109.88"/><polygon class="cls-1" points="350.89 115.75 354.89 117.5 355.6 112.69 352.18 111.2 350.89 115.75"/><polygon class="cls-1" points="349.24 121.5 354.01 123.59 354.7 118.89 350.51 117.06 349.24 121.5"/><polygon class="cls-1" points="357.42 100.6 355.5 99.76 354.23 104.19 356.73 105.28 357.42 100.6"/><polygon class="cls-1" points="348.22 125.42 353.81 125.42 353.81 125.15 348.87 122.93 348.22 125.42"/><polygon class="cls-1" points="460.55 117.07 456.35 118.9 457.04 123.6 461.82 121.52 460.55 117.07"/><path class="cls-1" d="M511-410.69a11,11,0,0,0-11,11v28.93h22v-28.93A11,11,0,0,0,511-410.69Z" transform="translate(0 496.19)"/><path class="cls-1" d="M441.34-414.32l-23.46,18.76a13.12,13.12,0,0,1,1.39,6,13.26,13.26,0,0,1-4.45,9.8l10.18,4v5h29.56l-6.4-40.76A11.81,11.81,0,0,1,441.34-414.32Z" transform="translate(0 496.19)"/><polygon class="cls-1" points="458.9 111.23 455.47 112.72 456.18 117.53 460.18 115.77 458.9 111.23"/><polygon class="cls-1" points="457.23 105.45 454.56 106.62 455.25 111.33 458.51 109.91 457.23 105.45"/><polygon class="cls-1" points="457.31 125.12 457.31 125.43 462.9 125.43 462.26 123.02 457.31 125.12"/><rect class="cls-1" x="1078" y="52.43" width="19" height="73"/><path class="cls-1" d="M546-410.76h-0.11A11,11,0,0,0,535-399.65v28.89h22v-29A11,11,0,0,0,546-410.76Z" transform="translate(0 496.19)"/><path class="cls-1" d="M584-410.76h-0.11A11,11,0,0,0,573-399.65v28.89h22v-29A11,11,0,0,0,584-410.76Z" transform="translate(0 496.19)"/><polygon class="cls-1" points="409 84.95 411.06 84.05 410.58 80.37 409 81.06 409 84.95"/><path class="cls-1" d="M412.21-421.07L415-399.33a9.93,9.93,0,0,1,.8.79L439-417a11.64,11.64,0,0,1-1.82-6.25,11.85,11.85,0,0,1,.27-2.49l-16-8.44A15.18,15.18,0,0,1,412.21-421.07Z" transform="translate(0 496.19)"/><path class="cls-1" d="M409-404.41v1.95a17.42,17.42,0,0,1,3.49,1.31l-0.59-4.53Z" transform="translate(0 496.19)"/><path class="cls-1" d="M417.32-455.42l22.78-12.24a14,14,0,0,1,3-12.1l-26.16-16.43a13.24,13.24,0,0,1-8.52,5.43l-0.1,27.16A11.71,11.71,0,0,1,417.32-455.42Z" transform="translate(0 496.19)"/><path class="cls-1" d="M433.46-432.89L420-441.54a14.56,14.56,0,0,1,.71,1.92Z" transform="translate(0 496.19)"/><polygon class="cls-1" points="409 90.3 411.71 89.12 411.23 85.44 409 86.43 409 90.3"/><path class="cls-1" d="M441.42-464.18L417.8-451.49a11.67,11.67,0,0,1-1,4.07l0.52,0.3,24.1-17v-0.06Z" transform="translate(0 496.19)"/><path class="cls-1" d="M409-420.13v3.53l1.41-.61L410-420.34A6.83,6.83,0,0,0,409-420.13Z" transform="translate(0 496.19)"/><path class="cls-2" d="M420-441.59h0l0.06,0Z" transform="translate(0 496.19)"/><path class="cls-2" d="M1239,33V18h-7V0h-8V18h-7V33h-38V44h-11V251h-15V161h-56v8h-19V158h-1.55L1072,142.77V126h-6v16.82L1064.16,158H1023v93h-9V230H985V219h5V193H973V83H962V74H925v46h-4V230H905v-7h4V79H886v2.06L856.82,58H827v77H815l-18,13h-7v56h-9v21h4v5H770v21H754V196.25l-17.5-29-17.5,29V201H701v-4.75l-17.5-29-17.5,29V201H627v50H613V177H569v-6h-9v-7H532v7h-8v6H481v74H465.52l-11.4-42a11.76,11.76,0,0,0-.56-21.17l3.63-23.2A14,14,0,1,0,446,139.41l-27.34-17.2a13.25,13.25,0,1,0-25,0l-27.43,17.26a14,14,0,1,0-11,25.21l3.56,22.78a11.69,11.69,0,0,0-1.66,21.27l-0.07.11L345.57,251H313V195.82l-17.5-29-17.5,29V201H260v-5.18l-17.5-29-17.5,29V201H185v50H167.53l-0.16-30H123V185h-6v-5l-12.5-18.89L92,180v5H86v-5L75,161.08,64,180v5H52V160H43V93H0V338H1269V33h-30ZM368.61,160.44v0.06l22.64,16-20.74,13.34a11.65,11.65,0,0,0-7.82-3h-0.13L359.68,165A14,14,0,0,0,368.61,160.44Zm2.15-3.06V157.3L394.42,170a11.67,11.67,0,0,0,.79,3.84l-0.62.4ZM393.22,179a15.24,15.24,0,0,0-1.14,2.38l-14.32,7.52Zm-34.61,35.5,0.51,0.11-0.59,4.07-1-.43Zm-1.44,5,1.15,0.5-0.7,4.78-1.75-.76Zm-1.67,5.83,1.92,0.84-0.69,4.68-2.5-1.09ZM353.81,251h-5.59l0.65-2.49,4.94,2.22V251Zm0.2-1.83-4.77-2.09,1.27-4.44,4.19,1.83Zm0.88-6.09-4-1.75,1.29-4.55,3.42,1.49Zm0.92-6.2-3.25-1.42,1.27-4.45,2.67,1.16ZM387,246v5H356.53l6.39-40.74a11.71,11.71,0,0,0,8.13-3.57l23.63,18.85A13.1,13.1,0,0,0,397.21,242Zm10-23.37-23.78-19a11.65,11.65,0,0,0,1.21-5.15,11.77,11.77,0,0,0-.29-2.58h0l17-9a15.17,15.17,0,0,0,9.25,13.77l-2.79,21.41C397.35,222.26,397.15,222.44,397,222.63Zm6-3.41a14.8,14.8,0,0,0-3.21,1.21l0.45-4.48,2.76,1.27v2Zm0-3.47-2.45-1.19,0.34-3.68,2.11,1v3.89Zm0-5.36-1.79-.9,0.34-3.68L403,206.5v3.89Zm-1.13-6,0.25-3a4.28,4.28,0,0,1,.87.22V205Zm-6.94-38.23-23-12.33A14,14,0,0,0,369,142l26.26-16.43a13.23,13.23,0,0,0,8.57,5.44l0.48,27.12A11.71,11.71,0,0,0,394.93,166.19Zm61.93,63.52-2.5,1.09-0.69-4.68,1.92-.84Zm-1.6-5.71-1.75.76-0.7-4.78,1.16-.5Zm-1.66-5.83-1,.43-0.6-4.09,0.51-.11ZM452.67,165l-2.89,21.83h-1a11.63,11.63,0,0,0-7.89,3.08l-20.24-13,22.92-16.19A13.94,13.94,0,0,0,452.67,165Zm-35.35,9.64-0.52-.3a11.67,11.67,0,0,0,1-4.07l23.62-12.69v0.06Zm2.68,5.53,0,0,13.44,8.65-12.73-6.73a14.56,14.56,0,0,0-.71-1.92l-0.06,0h0Zm1.41,7.37,16,8.44a11.85,11.85,0,0,0-.27,2.49,11.64,11.64,0,0,0,1.82,6.25l-23.12,18.5a9.93,9.93,0,0,0-.8-0.79l-2.83-21.74A15.18,15.18,0,0,0,421.41,187.54Zm-13-56.54a13.24,13.24,0,0,0,8.52-5.43L443.1,142a14,14,0,0,0-3,12.1l-22.78,12.24a11.71,11.71,0,0,0-9-8.18Zm2.16,74.94,0.48,3.68-2.06.9v-3.89Zm-1.58-.78v-3.53a6.83,6.83,0,0,1,1-.21l0.41,3.13Zm2.23,5.85,0.48,3.68L409,215.87V212ZM409,219.3v-1.95l2.9-1.27,0.59,4.53A17.42,17.42,0,0,0,409,219.3ZM425,251v-5l-10.18-4a13.26,13.26,0,0,0,4.45-9.8,13.12,13.12,0,0,0-1.39-6l23.46-18.76a11.81,11.81,0,0,0,6.82,2.76l6.4,40.76H425Zm29.56-18.77,2.67-1.17,1.28,4.46-3.26,1.42Zm0.91,6.1,3.43-1.49,1.28,4.54-4,1.76Zm0.88,6.18,4.2-1.83,1.27,4.45L457,249.17Zm1,6.53v-0.31l5-2.1L462.9,251h-5.59ZM522,251H500V222.07a11,11,0,0,1,22,0V251Zm35-28.93V251H535V222.11A11,11,0,0,1,545.89,211H546a11,11,0,0,1,11,11v0.07Zm38,0V251H573V222.11A11,11,0,0,1,583.89,211H584a11,11,0,0,1,11,11v0.07ZM1097,251h-19V178h19v73Z" transform="translate(0 496.19)"/></svg>